<?xml version="1.0" encoding="utf-8"?>
<!-- Generator: Adobe Illustrator 27.1.1, SVG Export Plug-In . SVG Version: 6.00 Build 0)  -->
<svg version="1.1" id="Capa_1" xmlns="http://www.w3.org/2000/svg" xmlns:xlink="http://www.w3.org/1999/xlink" x="0px" y="0px"
	 viewBox="0 0 512 353.6" style="enable-background:new 0 0 512 353.6;" xml:space="preserve">
<style type="text/css">
	.st0{fill:#700101;}
</style>
<g>
	<g>
		<g>
			<polygon class="st0" points="339.4,180.2 512,289.3 512,66.5 			"/>
		</g>
	</g>
</g>
<g>
	<g>
		<g>
			<polygon class="st0" points="0,66.5 0,289.3 172.6,180.2 			"/>
		</g>
	</g>
</g>
<g>
	<g>
		<g>
			<path class="st0" d="M480,1.6H32C16,1.6,3.4,13.5,1,28.8l255,168l255-168C508.6,13.5,496,1.6,480,1.6z"/>
		</g>
	</g>
</g>
<g>
	<g>
		<g>
			<path class="st0" d="M310.1,199.6l-45.3,29.8c-2.7,1.8-5.7,2.6-8.8,2.6s-6.1-0.9-8.8-2.6l-45.3-29.9L1,326.6
				c2.5,15.2,15.1,27,31,27h448c15.9,0,28.5-11.8,31-27L310.1,199.6z"/>
		</g>
	</g>
</g>
</svg>
